<?xml version="1.0" encoding="UTF-8"?>
<svg version="1.1" xmlns="http://www.w3.org/2000/svg" width="3000" height="3000">
<path d="M0 0 C1.11358887 0.16628906 2.22717773 0.33257813 3.37451172 0.50390625 C77.78829588 12.03596062 149.11389331 51.39147593 198 109 C198.78632812 109.8971875 199.57265625 110.794375 200.3828125 111.71875 C260.63027866 180.9208591 291.85694582 272.65361356 304.203125 415.421875 C304.21010727 416.96083603 304.2171482 418.4997968 304.22424316 420.03875732 C304.24355029 424.94250846 304.24842127 429.84621501 304.25 434.75 C304.25088371 436.0040715 304.25088371 436.0040715 304.25178528 437.28347778 C304.26483297 463.52192215 303.81599803 489.59385704 301.22460938 515.72576904 C301.00177086 517.98206958 300.78892821 520.23912835 300.578125 522.49658203 C297.0860388 559.39190576 290.78268635 596.00493 282 632 C281.8287561 632.70582214 281.65751221 633.41164429 281.4810791 634.13885498 C267.27197789 692.54718133 245.34214006 749.73746052 212 800 C211.53883789 800.69528809 211.07767578 801.39057617 210.60253906 802.10693359 C199.29907418 819.03806393 187.07953413 835.38426439 173.3359375 850.41796875 C171.44977906 852.50283619 169.60869533 854.61306743 167.7734375 856.7421875 C163.77511585 861.319115 159.54861595 865.64345948 155.25 869.9375 C154.45505127 870.73164307 153.66010254 871.52578613 152.84106445 872.34399414 C147.95427656 877.18006961 143.02599396 881.7250183 137.6015625 885.953125 C135.20867615 887.83581636 132.91986267 889.80597353 130.6340332 891.81616211 C71.16438214 943.71006144 -7.65880837 968.43526297 -85 975 C-85.80808105 975.07202637 -86.61616211 975.14405273 -87.44873047 975.21826172 C-149.13872376 980.52205362 -211.36966201 970.39088653 -267 943 C-267.85174805 942.58105469 -268.70349609 942.16210938 -269.58105469 941.73046875 C-296.93236369 928.12500119 -321.95522973 910.40498197 -344.25390625 889.55859375 C-346.89964603 887.09350192 -349.59756077 884.70083 -352.3125 882.3125 C-355.85705066 879.12803068 -359.0482686 875.83903383 -362.11328125 872.1953125 C-364.36926427 869.57033847 -366.74887561 867.07920318 -369.125 864.5625 C-375.99777793 857.16260988 -382.00095168 849.1118237 -388 841 C-388.44730469 840.39929687 -388.89460938 839.79859375 -389.35546875 839.1796875 C-403.99729275 819.44701393 -416.28457863 798.13994425 -426.99804688 776.05273438 C-428.01978193 773.95947211 -429.06386055 771.87834709 -430.109375 769.796875 C-465.26985806 698.83891511 -476.55726444 616.83248672 -476.25794983 538.44898987 C-476.24984573 536.2073263 -476.24491523 533.96567287 -476.24060059 531.72399902 C-476.1934359 510.42204218 -475.9245687 489.23039847 -474 468 C-473.8690118 466.46377072 -473.73884272 464.92747145 -473.609375 463.39111328 C-466.9151493 384.74481578 -450.83705853 305.02691747 -417.05908203 233.26220703 C-415.987598 230.97350923 -414.94316847 228.67387611 -413.90234375 226.37109375 C-401.75068163 199.74985457 -386.43643081 173.76971748 -368.36132812 150.7421875 C-367.03035531 149.03884783 -365.72269823 147.3201882 -364.421875 145.59375 C-347.47635919 123.15632552 -328.20327887 101.32606093 -306 84 C-304.14309253 82.41988192 -302.28908524 80.83635134 -300.4375 79.25 C-228.79021556 19.66671847 -136.84892211 -3.87222382 0 0 Z M-276 166 C-291.30347208 255.94763357 -303.25909154 345.91436735 -227.37109375 650.06787109 C-224.01722134 654.79410796 -220.57765099 659.43947786 -217 664 C-216.29617188 664.8971875 -215.59234375 665.794375 -214.8671875 666.71875 C-202.68478839 681.9140005 -188.98601477 696.79297237 -173.68359375 708.875 C-170.87333432 711.10030004 -168.16060556 713.41911129 -165.4375 715.75 C-98.24617996 771.62761448 -10.96006761 796.78003274 74.625 805.375 C75.47189392 805.4606723 76.31878784 805.5463446 77.19134521 805.63461304 C86.15134657 806.52693754 94.98503811 807.23153681 104 807 C113.20214913 753.38640921 121.86489799 699.37151041 125 645 C125.06195053 643.97534637 125.06195053 643.97534637 125.12515259 642.92999268 C125.93919334 629.28315089 126.20233355 615.66966398 126.1875 602 C126.18689575 600.95886047 126.1862915 599.91772095 126.18566895 598.84503174 C126.04797705 510.64665505 112.35567292 420.71432064 43 306 C42.5659082 305.44586426 42.13181641 304.89172852 41.68457031 304.32080078 C34.71063204 295.54843339 26.82869903 287.62528512 18.9375 279.6875 C18.43061646 279.17525879 17.92373291 278.66301758 17.40148926 278.13525391 C10.60678367 271.2861643 3.58366291 264.98485836 -4 259 C-5.15738645 258.05868726 -6.31382461 257.11620567 -7.46875 256.171875 C-76.13578972 201.30903398 -162.47324424 175.03704116 -249 167 C-250.54131592 166.85425537 -250.54131592 166.85425537 -252.11376953 166.70556641 C-260.08947351 166.01553494 -267.99720857 165.89201631 -276 166 Z " fill="#016390" transform="translate(1560,877)"/>
<path d="M0 0 C207.24 0 414.48 0 628 0 C628 115.94848558 627.62765492 156.21848298 594.18408203 253.70166016 C590.76488745 263.66870944 587.39185201 273.65109579 584.02734375 283.63671875 C583.73891539 284.49262289 583.45048702 285.34852703 583.15331841 286.23036766 C581.68582352 290.58560142 580.21898489 294.94105579 578.75259399 299.29666138 C575.5898863 308.69070948 572.42375973 318.08360579 569.2578125 327.4765625 C568.78551806 328.87790908 568.78551806 328.87790908 568.30368233 330.30756569 C562.65584883 347.064612 556.99022051 363.81555843 551.3125 380.5625 C543.54546785 403.47343502 535.79916508 426.39129493 528.0625 449.3125 C519.83047374 473.70102894 511.58982549 498.08659951 503.33390045 522.46704865 C495.52212655 545.53615854 487.72680848 568.61079557 479.9375 591.6875 C471.71819493 616.03811782 463.48707671 640.3846614 455.23748779 664.72503662 C447.82999546 686.58218722 440.44321676 708.44629459 433.0625 730.3125 C424.61291795 755.34533932 416.15456487 780.3751691 407.67938232 805.39935303 C402.46097697 820.8076239 397.24935955 836.21815726 392.04955673 851.63271713 C391.16879996 854.2436297 390.28792286 856.85450165 389.40701294 859.46536255 C386.84344018 867.06355993 384.28017984 874.66186099 381.71940136 882.26100063 C380.66120466 885.40051896 379.60214367 888.53974531 378.54290199 891.67891121 C378.06064356 893.1087306 377.57873099 894.53866672 377.09724998 895.96874809 C372.48210484 909.67565316 367.7313554 923.33163995 363 937 C271.26 937 179.52 937 85 937 C86.5780305 933.05492374 88.18381352 929.78328045 90.31640625 926.15234375 C90.64451797 925.59215546 90.9726297 925.03196716 91.3106842 924.45480347 C92.39092105 922.61349818 93.4765244 920.77542561 94.5625 918.9375 C95.32674205 917.63831314 96.09090083 916.3390773 96.85498047 915.03979492 C102.3808751 905.66134906 108.01756926 896.35280571 113.69314575 887.06442261 C118.75272987 878.77923262 123.67966864 870.42726897 128.5 862 C133.99823127 852.38757498 139.66575651 842.89236959 145.44018555 833.44473267 C151.75890477 823.10226318 157.92814973 812.67825463 164.02880859 802.20581055 C167.83173676 795.68186232 171.67469987 789.18498258 175.56735229 782.71437073 C178.22878961 778.28952949 180.87435471 773.85561105 183.5078125 769.4140625 C183.88163559 768.78361023 184.25545868 768.15315796 184.64060974 767.50360107 C185.40732746 766.21024266 186.17396369 764.91683592 186.94052124 763.62338257 C193.1614664 753.12777152 199.40046211 742.64368577 205.6875 732.1875 C212.43664675 720.96025922 219.11939004 709.69444707 225.79095459 698.42097473 C230.04322772 691.23607165 234.30143746 684.05469353 238.5625 676.875 C238.96477814 676.19715454 239.36705627 675.51930908 239.78152466 674.82092285 C245.66405868 664.91103938 251.57946655 655.02142992 257.5168457 645.14428711 C263.65264527 634.9294586 269.72224519 624.67575485 275.79095459 614.42097473 C280.04322772 607.23607165 284.30143746 600.05469353 288.5625 592.875 C288.96477814 592.19715454 289.36705627 591.51930908 289.78152466 590.82092285 C295.66405868 580.91103938 301.57946655 571.02142992 307.5168457 561.14428711 C313.65264527 550.9294586 319.72224519 540.67575485 325.79095459 530.42097473 C330.04322772 523.23607165 334.30143746 516.05469353 338.5625 508.875 C338.96477814 508.19715454 339.36705627 507.51930908 339.78152466 506.82092285 C345.66405868 496.91103938 351.57946655 487.02142992 357.5168457 477.14428711 C363.65264527 466.9294586 369.72224519 456.67575485 375.79095459 446.42097473 C380.04322774 439.23607162 384.30146058 432.05470729 388.5625 424.875 C388.96378113 424.19881622 389.36506226 423.52263245 389.77850342 422.82595825 C395.73167872 412.79675526 401.7190699 402.78877224 407.7277832 392.79272461 C412.12147568 385.47819492 416.47560318 378.14121375 420.81054688 370.79174805 C425.65279238 362.58285688 430.51036107 354.38313535 435.375 346.1875 C435.78259552 345.50079224 436.19019104 344.81408447 436.61013794 344.10656738 C442.54984969 334.10200725 448.52175189 324.11743611 454.51611328 314.14550781 C460.65215519 303.93027124 466.72200348 293.67616329 472.79095459 283.42097473 C477.04322772 276.23607165 481.30143746 269.05469353 485.5625 261.875 C485.96477814 261.19715454 486.36705627 260.51930908 486.78152466 259.82092285 C492.65533842 249.92572977 498.56178147 240.0506621 504.49047852 230.18823242 C509.18665372 222.37017886 513.85065873 214.53345935 518.5 206.6875 C519.14670654 205.59655029 519.79341309 204.50560059 520.4597168 203.3815918 C523.53195322 198.19219155 526.58860914 192.99428251 529.62658691 187.78474426 C530.25799843 186.70207181 530.88940994 185.61939936 531.53995514 184.50391865 C532.02176994 183.67762549 532.50358475 182.85133234 533 182 C500.98050271 186.32265412 468.9610464 190.64561171 436.94163418 194.96889591 C434.63141438 195.28082327 432.32119457 195.59275057 430.01097476 195.90467779 C428.45847404 196.11429736 426.90597334 196.32391708 425.35347266 196.53353693 C414.44247307 198.00674687 403.53146303 199.47987929 392.62044586 200.95295902 C372.9956249 203.60248052 353.37083619 206.25224071 333.74609375 208.90234375 C332.95957717 209.00855379 332.17306059 209.11476383 331.36271018 209.22419235 C287.08755732 215.20307848 242.81324088 221.18809848 198.54024816 227.18296003 C193.59303496 227.85282162 188.64580812 228.52258241 183.69858032 229.1923362 C177.73077063 230.00025807 171.76296722 230.80822633 165.79516602 231.61621094 C164.64438989 231.77201496 163.49361377 231.92781898 162.30796564 232.08834434 C148.7613514 233.92247734 135.21486923 235.7575807 121.66857404 237.59406859 C113.29089458 238.72978805 104.91309622 239.86462742 96.53520232 240.99876398 C90.84482125 241.76913769 85.15459114 242.54061325 79.46448189 243.31299198 C76.05868014 243.77502029 72.65273179 244.23596014 69.24673665 244.69656038 C67.68623784 244.907816 66.12580094 245.11952951 64.56543052 245.33173132 C62.46219899 245.61769903 60.35875631 245.90205827 58.25524902 246.18598938 C57.08647972 246.34441472 55.91771042 246.50284006 54.71352386 246.66606617 C52 247 52 247 50 247 C48.68 264.82 47.36 282.64 46 301 C30.82 301 15.64 301 0 301 C0 201.67 0 102.34 0 0 Z " fill="#016390" transform="translate(1911,895)"/>
<path d="M0 0 C1.67578125 2.20556641 1.67578125 2.20556641 3.3125 5.1015625 C4.21355469 6.67357422 4.21355469 6.67357422 5.1328125 8.27734375 C5.74898437 9.38207031 6.36515625 10.48679687 7 11.625 C7.61617187 12.70652344 8.23234375 13.78804687 8.8671875 14.90234375 C10.02526019 16.93766893 11.17819084 18.97593493 12.32421875 21.01806641 C13.98922199 24.06918322 13.98922199 24.06918322 16.07505322 27.11259085 C18.5318189 31.44189626 18.54688681 35.29132207 18.47492981 40.18048 C18.47758766 41.09031167 18.4802455 42.00014333 18.48298389 42.93754565 C18.48683575 45.99967908 18.46177281 49.06088542 18.43676758 52.12290955 C18.43312041 54.34842144 18.43115618 56.57393663 18.43072319 58.79945147 C18.42396249 64.9602495 18.39109715 71.12067713 18.35362601 77.2813551 C18.33181346 81.25821394 18.31728987 85.23505382 18.30646706 89.211954 C18.30371271 90.21935598 18.30371271 90.21935598 18.30090271 91.24710952 C18.29717328 92.61954915 18.29345267 93.99198881 18.28974069 95.3644285 C18.2411913 112.64605337 18.14030775 129.92729605 18.03036594 147.20862311 C18.004963 151.20200136 17.98025223 155.19538351 17.9557821 159.18876757 C17.6561072 208.06468457 17.25874742 256.93970778 16.83874375 305.81471873 C16.719211 319.73413117 16.60224629 333.65356359 16.48690796 347.5730114 C16.47858988 348.57672705 16.4702718 349.5804427 16.46170165 350.61457398 C16.41943196 355.71642253 16.3771993 360.81827138 16.33498085 365.92012035 C16.03949913 401.61938841 15.73945469 437.3186167 15.43652344 473.01782227 C15.1431026 507.59755498 14.85187539 542.1773051 14.56347656 576.75708008 C14.55451223 577.83182623 14.54554789 578.90657238 14.53631191 580.01388659 C14.4462523 590.81153422 14.35623576 601.6091822 14.26625071 612.40683045 C14.08310457 634.38311508 13.89967181 656.35939732 13.71606445 678.3356781 C13.70763152 679.34507293 13.69919859 680.35446776 13.69051011 681.39445031 C13.1318277 748.26300744 12.56647468 815.13150849 12 882 C13.3438473 881.99813512 13.3438473 881.99813512 14.71484303 881.99623257 C15.88831941 881.9952656 17.06179579 881.99429862 18.27083206 881.99330235 C19.43485526 881.99205909 20.59887846 881.99081584 21.7981751 881.98953491 C25.06110644 882.00019972 28.30701376 882.08825791 31.56542969 882.25952148 C33.23215729 882.34477333 33.23215729 882.34477333 34.93255615 882.43174744 C36.08403137 882.49423172 37.23550659 882.556716 38.421875 882.62109375 C39.64731018 882.68531021 40.87274536 882.74952667 42.13531494 882.81568909 C44.70341604 882.95107688 47.27142957 883.08813541 49.83935547 883.22680664 C53.75335283 883.43768064 57.66765123 883.64206911 61.58203125 883.84570312 C64.09116626 883.97878212 66.60028159 884.11223282 69.109375 884.24609375 C70.26894714 884.3065538 71.42851929 884.36701385 72.62322998 884.42930603 C73.72177307 884.48929276 74.82031616 884.54927948 75.95214844 884.61108398 C76.90555115 884.66215805 77.85895386 884.71323212 78.84124756 884.76585388 C82.90384368 885.06699844 86.95117392 885.55013044 91 886 C91 902.5 91 919 91 936 C-38.36 936 -167.72 936 -301 936 C-301 919.5 -301 903 -301 886 C-285.87451579 884.86152269 -270.75463257 883.82368142 -255.60870361 883.00872803 C-253.97317823 882.92066777 -252.33771816 882.83138443 -250.70233154 882.74078369 C-240.78778298 882.19462928 -230.93279057 881.87401534 -221 882 C-221.10450926 881.00657607 -221.10450926 881.00657607 -221.21112981 879.99308298 C-221.88367006 873.19457973 -222.16890919 866.47021274 -222.21675205 859.6411953 C-222.22803614 858.54661398 -222.23932023 857.45203267 -222.25094625 856.32428223 C-222.28756448 852.66611578 -222.31779376 849.00792522 -222.34803772 845.34970093 C-222.3732689 842.69521541 -222.39885545 840.04073547 -222.42487329 837.38625777 C-222.48069204 831.61791943 -222.53317914 825.84955831 -222.58345795 820.08116913 C-222.65827497 811.49866383 -222.73824917 802.9162119 -222.81922253 794.33376276 C-222.96391245 778.97947893 -223.1034496 763.6251515 -223.24081013 748.27080055 C-223.36151398 734.77972683 -223.48391197 721.2886698 -223.60796928 707.7976265 C-223.61621863 706.90024355 -223.62446797 706.0028606 -223.63296729 705.07828423 C-223.66646984 701.43392743 -223.69997885 697.78957069 -223.73349839 694.14521404 C-224.04835426 659.90946237 -224.35796895 625.67366503 -224.66523774 591.43784452 C-224.93630664 561.23895854 -225.21189274 531.04011711 -225.49145508 500.84130859 C-225.80661703 466.79520196 -226.11880542 432.74907006 -226.4264726 398.70289481 C-226.45959188 395.03877293 -226.49271784 391.37465112 -226.52584648 387.71052933 C-226.53807509 386.35758711 -226.53807509 386.35758711 -226.55055073 384.97731272 C-226.66378611 372.45421909 -226.77872634 359.9311422 -226.89498436 347.40807628 C-227.09040889 326.35201355 -227.28168735 305.29591724 -227.46508789 284.23974609 C-227.47545205 283.05115473 -227.47545205 283.05115473 -227.48602558 281.83855143 C-227.96721114 226.55838341 -228.17912356 171.28250226 -228 116 C-229.06863407 116.26857189 -230.13726814 116.53714378 -231.23828506 116.81385422 C-232.67042519 117.17303291 -234.10257362 117.53217853 -235.534729 117.89129639 C-236.58585341 118.15560864 -236.58585341 118.15560864 -237.65821266 118.42526054 C-244.74470284 120.20086968 -251.85921216 121.83949623 -258.984375 123.453125 C-260.34198693 123.76126087 -261.69959176 124.06942806 -263.05718994 124.37762451 C-265.86335109 125.01413419 -268.66985022 125.64912841 -271.4765625 126.28320312 C-275.06837195 127.09494753 -278.65885815 127.91239829 -282.24908066 128.73112869 C-285.03479939 129.365426 -287.82138231 129.99585811 -290.60822296 130.62520599 C-292.57419858 131.07016355 -294.53927564 131.5190853 -296.5043335 131.96807861 C-297.69367493 132.23545837 -298.88301636 132.50283813 -300.10839844 132.77832031 C-301.67482086 133.13328583 -301.67482086 133.13328583 -303.27288818 133.49542236 C-306 134 -306 134 -310 134 C-311.85875949 127.52422539 -313.7093257 121.04615039 -315.55419922 114.56640625 C-316.18284456 112.36209075 -316.8133675 110.15830983 -317.44580078 107.95507812 C-318.35422351 104.78914649 -319.25588903 101.62135737 -320.15625 98.453125 C-320.44060913 97.46757629 -320.72496826 96.48202759 -321.01794434 95.46661377 C-321.27821411 94.5459613 -321.53848389 93.62530884 -321.80664062 92.67675781 C-322.03758423 91.8684552 -322.26852783 91.06015259 -322.50646973 90.22735596 C-323 88 -323 88 -323 84 C-309.18503954 80.0012222 -295.33482565 76.17196213 -281.4296875 72.5 C-279.49170279 71.98658798 -277.55376679 71.47299207 -275.61587524 70.95922852 C-270.44477705 69.58881039 -265.27303437 68.22083987 -260.10116577 66.85333252 C-254.61586636 65.40245098 -249.13120502 63.94916133 -243.64648438 62.49609375 C-234.69137626 60.12388265 -225.73595087 57.75287335 -216.78027344 55.3828125 C-205.365845 52.36198178 -193.95220269 49.33819393 -182.5390625 46.3125 C-181.69913631 46.08983397 -180.85921013 45.86716793 -179.99383163 45.63775444 C-176.64163068 44.7490719 -173.28943339 43.86037553 -169.93724632 42.97164059 C-164.14949996 41.43720709 -158.36164269 39.90319251 -152.57373047 38.36938477 C-133.28790962 33.25848779 -114.00296847 28.14428359 -94.71875 23.02734375 C-93.04766426 22.58394087 -93.04766426 22.58394087 -91.34281921 22.13158035 C-80.36341624 19.21831799 -69.38405674 16.30489204 -58.40485382 13.39087582 C-54.35087016 12.31493549 -50.29684565 11.23914917 -46.24281311 10.16339302 C-44.37270711 9.66711144 -42.50261955 9.17076035 -40.6325531 8.67432976 C-39.75571365 8.44156397 -38.87887421 8.20879818 -37.97546387 7.96897888 C-37.11752983 7.74112985 -36.25959579 7.51328081 -35.37566376 7.27852726 C-33.70497496 6.8356137 -32.03394758 6.39397498 -30.36255646 5.95371914 C-26.11842992 4.83493808 -21.88210623 3.69389216 -17.65332031 2.51834106 C-16.78470367 2.28041368 -15.91608704 2.04248629 -15.02114868 1.79734898 C-13.36840673 1.34431657 -11.71767519 0.88386084 -10.06942749 0.41474056 C-3.62424304 -1.337206 -3.62424304 -1.337206 0 0 Z " fill="#016390" transform="translate(935,896)"/>
</svg>
